Coordinates
version=1
nRows=11
nColumns=40
inDegrees=yes

Units are S.I. units (second, meters, Newtons, ...)
If the header above contains a line with 'inDegrees', this indicates whether rotational values are in degrees (yes) or radians (no).

endheader
time	pelvis_tilt	pelvis_list	pelvis_rotation	pelvis_tx	pelvis_ty	pelvis_tz	hip_flexion_r	hip_adduction_r	hip_rotation_r	knee_angle_r	knee_angle_r_beta	ankle_angle_r	subtalar_angle_r	mtp_angle_r	hip_flexion_l	hip_adduction_l	hip_rotation_l	knee_angle_l	knee_angle_l_beta	ankle_angle_l	subtalar_angle_l	mtp_angle_l	lumbar_extension	lumbar_bending	lumbar_rotation	arm_flex_r	arm_add_r	arm_rot_r	elbow_flex_r	pro_sup_r	wrist_flex_r	wrist_dev_r	arm_flex_l	arm_add_l	arm_rot_l	elbow_flex_l	pro_sup_l	wrist_flex_l	wrist_dev_l
      0.00000000	     -3.38966720	      1.29290516	     59.49360272	      0.09297598	      1.08119437	      0.66218510	     -6.51004214	     -8.30043933	    -11.74945588	      7.99226786	      0.13949139	      7.46140535	      0.00000000	      0.00000000	     18.05247956	     -3.90260808	    -20.97480630	     21.98691224	      0.38374401	      4.60080079	      0.00000000	      0.00000000	    -13.76372117	     -5.49333160	     -2.76534480	      4.96723908	    -23.46872134	     40.04160873	    102.58390627	     67.12281540	      0.00000000	      0.00000000	     -2.39067320	    -21.58826862	     22.35392619	    114.58032820	     84.96991453	      0.00000000	      0.00000000
      0.00277778	     -3.33687395	      1.09232795	     59.53557769	      0.09277643	      1.08083773	      0.66181650	     -6.38736564	     -8.14456054	    -11.80325228	      7.95910386	      0.13891257	      7.50586996	      0.00000000	      0.00000000	     18.30285673	     -4.06888488	    -20.93179604	     22.20003241	      0.38746366	      4.71909326	      0.00000000	      0.00000000	    -13.59544824	     -5.31640953	     -2.76380439	      4.96704522	    -23.51063412	     40.02167173	    102.56969264	     67.14852621	      0.00000000	      0.00000000	     -2.37651426	    -21.55344063	     22.37121495	    114.59201108	     84.91996363	      0.00000000	      0.00000000
      0.00555556	     -3.36433015	      1.40273189	     59.41890096	      0.09287399	      1.08118803	      0.66111002	     -6.73487792	     -8.36880349	    -11.78881202	      7.86259348	      0.13722814	      7.46983846	      0.00000000	      0.00000000	     17.94829321	     -3.88619281	    -21.10487748	     22.15073436	      0.38660325	      4.62936192	      0.00000000	      0.00000000	    -13.85077191	     -5.52239590	     -2.66819974	      5.01794534	    -23.48810282	     40.03151261	    102.62726474	     67.02085370	      0.00000000	      0.00000000	     -2.28416374	    -21.58182622	     22.35639247	    114.60989911	     84.81527716	      0.00000000	      0.00000000
      0.00833333	     -3.29195639	      1.07676893	     59.34359040	      0.09272441	      1.08062682	      0.66086711	     -6.45179296	     -8.13868580	    -11.62002647	      7.87081747	      0.13737168	      7.53026933	      0.00000000	      0.00000000	     18.32613672	     -4.18851664	    -21.12848015	     22.42216553	      0.39134061	      4.85697467	      0.00000000	      0.00000000	    -13.58200437	     -5.28508968	     -2.53898337	      5.06789265	    -23.52356089	     40.02807389	    102.58892175	     67.17961541	      0.00000000	      0.00000000	     -2.24984245	    -21.53279263	     22.31927811	    114.59928058	     84.84322639	      0.00000000	      0.00000000
      0.01111111	     -3.29139778	      1.12272158	     59.30412679	      0.09263509	      1.08057258	      0.66019340	     -6.54210521	     -8.19203425	    -11.74268725	      7.83604366	      0.13676476	      7.50788526	      0.00000000	      0.00000000	     18.30111450	     -4.17871431	    -21.20449667	     22.54096688	      0.39341409	      4.79758427	      0.00000000	      0.00000000	    -13.60676481	     -5.30494762	     -2.50749357	      5.09975230	    -23.53061347	     40.05248756	    102.60488549	     67.12938519	      0.00000000	      0.00000000	     -2.21484013	    -21.52144449	     22.27716810	    114.65517864	     84.86008012	      0.00000000	      0.00000000
      0.01388889	     -3.26444825	      0.79617421	     59.25409561	      0.09250870	      1.08000076	      0.66023676	     -6.19605126	     -7.99935584	    -11.58240002	      7.91471893	      0.13813790	      7.67293948	      0.00000000	      0.00000000	     18.69551781	     -4.43248787	    -21.21400873	     22.75114377	      0.39708237	      5.03248978	      0.00000000	      0.00000000	    -13.32717853	     -5.10978282	     -2.41478838	      5.15838281	    -23.55191550	     40.11010106	    102.62775610	     67.09192386	      0.00000000	      0.00000000	     -2.17311478	    -21.50436842	     22.24365529	    114.61474490	     84.94111127	      0.00000000	      0.00000000
      0.01666667	     -3.19930843	      0.83180626	     59.21745631	      0.09239707	      1.07996598	      0.65945698	     -6.33602476	     -7.98452575	    -11.63566214	      7.82893002	      0.13664061	      7.57062027	      0.00000000	      0.00000000	     18.64372075	     -4.48340423	    -21.30240628	     22.87527262	      0.39924882	      5.02994644	      0.00000000	      0.00000000	    -13.36983450	     -5.05794278	     -2.36553551	      5.18999833	    -23.57330725	     40.09766384	    102.60305585	     67.21388154	      0.00000000	      0.00000000	     -2.14601553	    -21.47351985	     22.23202726	    114.65179773	     84.85279314	      0.00000000	      0.00000000
      0.01944444	     -3.25495188	      1.21208331	     59.08429325	      0.09252479	      1.08036717	      0.65844693	     -6.77845008	     -8.28045118	    -11.60432348	      7.66225624	      0.13373160	      7.53344054	      0.00000000	      0.00000000	     18.21084871	     -4.24067764	    -21.59914702	     22.82035730	      0.39829037	      4.85848983	      0.00000000	      0.00000000	    -13.64618457	     -5.32638434	     -2.27677578	      5.21439888	    -23.55695257	     40.12091250	    102.63931317	     67.03905815	      0.00000000	      0.00000000	     -2.08926081	    -21.50417648	     22.23976580	    114.69976851	     84.72116343	      0.00000000	      0.00000000
      0.02222222	     -3.38630277	      0.72629036	     59.00927881	      0.09227110	      1.07934141	      0.65826647	     -6.22683795	     -8.15444682	    -11.39262089	      7.66945602	      0.13385726	      7.65757327	      0.00000000	      0.00000000	     18.91796747	     -4.48338471	    -21.74405245	     23.22614055	      0.40537263	      4.90266582	      0.00000000	      0.00000000	    -13.11750399	     -5.18943724	     -2.10327975	      5.13262413	    -23.56219403	     40.03761073	    102.72084246	     66.77388610	      0.00000000	      0.00000000	     -1.98581840	    -21.51308054	     22.42283393	    114.64537800	     83.97415244	      0.00000000	      0.00000000
      0.02500000	     -3.08440727	      0.95411647	     58.92742173	      0.09241048	      1.07981037	      0.65742304	     -6.67128046	     -8.02620909	    -11.44282547	      7.60815718	      0.13278739	      7.49920616	      0.00000000	      0.00000000	     18.49193969	     -4.64754668	    -21.84193594	     23.24822194	      0.40575802	      5.03251816	      0.00000000	      0.00000000	    -13.46215930	     -5.03721601	     -2.07355344	      5.31898748	    -23.58036128	     40.10827945	    102.61042835	     67.25589840	      0.00000000	      0.00000000	     -2.01141207	    -21.43966048	     22.17231222	    114.70235653	     84.72752242	      0.00000000	      0.00000000
      0.02777778	     -3.07937550	      0.95593269	     58.85377581	      0.09243783	      1.07971518	      0.65699015	     -6.69392742	     -8.04608231	    -11.42932297	      7.59197323	      0.13250493	      7.52022769	      0.00000000	      0.00000000	     18.48153756	     -4.68374466	    -21.98782815	     23.31394754	      0.40690515	      5.01668546	      0.00000000	      0.00000000	    -13.44509416	     -5.04067598	     -1.98859893	      5.33241222	    -23.59105844	     40.12300809	    102.64293263	     67.16851008	      0.00000000	      0.00000000	     -1.98096214	    -21.44306592	     22.17089055	    114.70130332	     84.76206719	      0.00000000	      0.00000000
